<svg width="24px" height="24px" xmlns="http://www.w3.org/2000/svg">
 <g>
  <g id="svg_3">
   <g id="svg_2">
    <path fill="currentColor" id="svg_1" d="m17.00001,2c-0.5523,0 -1,0.44772 -1,1c0,0.55228 0.4477,1 1,1l1.5858,0l-4.2929,4.29289c-0.3905,0.39053 -0.3905,1.02369 0,1.41422c0.3905,0.39049 1.0237,0.39049 1.4142,0l4.2929,-4.29289l0,1.58579c0,0.55228 0.4477,0.99999 1,0.99999c0.5523,0 1,-0.44771 1,-1l0,-4c0,-0.55228 -0.4477,-1 -1,-1l-4,0zm-13,16.5858l0,-1.5858c0,-0.5523 -0.44772,-1 -1,-1c-0.55229,0 -1,0.4477 -1,1l0,4c0,0.5523 0.44772,1 1,1l4,0c0.55228,0 1,-0.4477 1,-1c0,-0.5523 -0.44771,-1 -1,-1l-1.58579,0l4.2929,-4.2929c0.39049,-0.3905 0.39049,-1.0237 0,-1.4142c-0.39053,-0.3905 -1.02369,-0.3905 -1.41422,0l-4.29289,4.2929z" xmlns="http://www.w3.org/2000/svg"/>
   </g>
   <g transform="rotate(-90 12 12)">
    <path fill="currentColor" d="m17.00001,2c-0.5523,0 -1,0.44772 -1,1c0,0.55228 0.4477,1 1,1l1.5858,0l-4.2929,4.29289c-0.3905,0.39053 -0.3905,1.02369 0,1.41422c0.3905,0.39049 1.0237,0.39049 1.4142,0l4.2929,-4.29289l0,1.58579c0,0.55228 0.4477,0.99999 1,0.99999c0.5523,0 1,-0.44771 1,-1l0,-4c0,-0.55228 -0.4477,-1 -1,-1l-4,0zm-13,16.5858l0,-1.5858c0,-0.5523 -0.44772,-1 -1,-1c-0.55229,0 -1,0.4477 -1,1l0,4c0,0.5523 0.44772,1 1,1l4,0c0.55228,0 1,-0.4477 1,-1c0,-0.5523 -0.44771,-1 -1,-1l-1.58579,0l4.2929,-4.2929c0.39049,-0.3905 0.39049,-1.0237 0,-1.4142c-0.39053,-0.3905 -1.02369,-0.3905 -1.41422,0l-4.29289,4.2929z" xmlns="http://www.w3.org/2000/svg"/>
   </g>
  </g>
 </g>
</svg>